<svg width="760" height="177" viewBox="0 0 760 177" fill="none" xmlns="http://www.w3.org/2000/svg">
<path d="M548.48 109.889C548.48 126.579 548.48 143.283 548.48 159.973C548.48 166.832 545.353 171.909 539.311 175.135C532.213 178.935 523.369 176.719 518.764 170.099C516.271 166.523 515.384 162.526 515.384 158.22C515.412 129.538 515.384 100.856 515.384 72.1744C515.384 67.8125 515.355 63.4506 515.384 59.0887C515.426 51.4589 520.58 44.867 527.988 42.9315C534.889 41.1223 542.551 44.4182 546.269 50.912C547.86 53.689 548.466 56.7746 548.466 59.9723C548.466 76.6064 548.466 93.2545 548.466 109.889H548.48Z" fill="#0045FF" fill-opacity="0.3"/>
<path d="M137.017 114.615C136.834 120.632 136.271 126.355 134.384 131.867C130.793 142.357 123.92 149.819 113.287 153.466C103.499 156.832 93.5981 156.846 83.8664 153.255C73.5432 149.454 66.8818 141.923 63.6144 131.698C58.9105 116.958 59.6569 102.469 67.8394 88.977C72.5574 81.1789 79.8245 76.6627 88.7534 74.587C95.6965 72.9881 102.541 73.0021 109.442 74.6711C118.779 76.9292 126.018 81.9643 130.962 90.2253C135.525 97.841 136.722 106.228 137.017 114.615ZM98.8653 90.7722C92.6263 90.7722 88.1196 93.5913 85.9648 98.8929C81.9229 108.809 82.3031 118.949 85.0353 129.005C87.2464 137.14 94.8656 140.142 102.33 138.669C108.639 137.421 111.991 132.961 113.456 127.126C115.512 118.991 115.653 110.688 113.414 102.624C111.343 95.1762 107.329 90.7021 98.8512 90.7863L98.8653 90.7722Z" fill="#FF2E59" fill-opacity="0.3"/>
<path d="M666.33 121.81C666.33 127.575 666.105 133.339 666.387 139.075C666.725 145.808 661.711 152.512 654.57 153.984C642.74 156.411 630.882 156.818 619.08 153.802C607.813 150.927 600.659 141.446 600.363 129.917C600.096 119.131 606.757 110.927 615.686 107.252C624.192 103.746 633.079 102.82 642.191 103.535C644.613 103.732 644.867 103.563 644.74 101.179C644.473 96.0737 641.684 92.7077 636.642 91.5576C631.305 90.3514 625.953 90.4496 620.643 91.7259C618.052 92.343 615.559 92.357 613.109 91.1649C609.996 89.6501 608.053 86.5786 608.222 83.3387C608.391 80.0989 610.757 76.9852 613.954 75.8492C617.686 74.5168 621.615 74.2363 625.488 73.7314C631.882 72.8898 638.262 73.2124 644.487 74.8113C657.514 78.1774 664.105 85.8212 665.922 99.1313C666.203 101.207 666.344 103.297 666.344 105.387C666.344 110.856 666.344 116.326 666.344 121.782L666.33 121.81ZM644.797 127.897C644.797 125.106 644.782 122.315 644.797 119.538C644.797 118.402 644.332 117.883 643.177 117.729C640.332 117.336 637.445 117.14 634.614 117.448C631.178 117.813 627.727 118.402 624.897 120.604C621.334 123.367 620.686 127.168 621.686 131.291C622.686 135.429 625.882 137.336 629.755 138.122C634.206 139.033 638.713 138.697 643.191 138.122C644.304 137.982 644.825 137.449 644.797 136.284C644.754 133.493 644.782 130.702 644.782 127.925L644.797 127.897Z" fill="#0045FF" fill-opacity="0.3"/>
<path d="M285.274 120.156C285.274 127.435 285.077 133.143 285.316 138.837C285.64 146.439 280.415 152.821 272.923 154.069C266.346 155.163 259.755 156.481 253.051 156.018C246.517 155.57 239.982 154.868 233.884 152.133C224.772 148.052 220.349 140.885 219.758 131.165C219.462 126.257 220.209 121.488 222.856 117.252C225.955 112.301 230.363 108.879 235.855 106.803C243.601 103.872 251.615 102.96 259.825 103.592C264.149 103.928 264.515 103.521 263.558 99.2858C262.501 94.6574 259.262 91.9645 253.967 91.1931C248.756 90.4358 243.601 90.7023 238.433 91.7261C234.517 92.5115 231.081 91.684 228.687 88.1917C225.772 83.928 227.786 77.4483 232.884 76.0037C244.658 72.6656 256.53 71.8802 268.219 76.3824C277.838 80.0851 282.993 87.3221 284.57 97.3362C285.838 105.443 284.88 113.606 285.232 120.141L285.274 120.156ZM264.036 127.912C264.036 125.233 264.008 122.568 264.05 119.889C264.079 118.515 263.684 117.827 262.121 117.631C257.107 116.986 252.206 117.28 247.39 118.809C242.897 120.24 240.292 123.9 240.376 128.711C240.447 133.157 243.122 136.607 247.671 137.799C252.488 139.062 257.361 139.132 262.276 138.234C263.543 137.996 264.065 137.365 264.05 136.102C264.008 133.367 264.05 130.646 264.036 127.912Z" fill="#FF2E59" fill-opacity="0.3"/>
<path d="M171.339 154.013C170.931 154.013 170.522 154.013 170.114 154.013C163.875 154.041 161.791 152.4 160.044 146.495C154.707 128.416 149.313 110.338 143.961 92.2729C143.384 90.3234 142.75 88.3879 142.736 86.3121C142.693 80.9124 146.341 76.5224 151.805 75.4705C156.692 74.5308 162.199 77.6024 163.79 82.5113C164.974 86.1579 165.776 89.9307 166.678 93.6614C169.762 106.382 172.818 119.117 175.888 131.838C176.071 132.568 176.297 133.297 176.606 133.984C177.057 135.022 177.846 135.695 179.057 135.625C180.24 135.555 181.015 134.896 181.381 133.802C181.86 132.301 182.338 130.815 182.761 129.3C186.789 114.475 190.859 99.6643 194.816 84.8254C196.07 80.1269 198.436 76.6627 203.464 75.5547C210.027 74.1101 216.688 80.3514 215.449 86.8872C214.505 91.8662 212.716 96.6348 211.266 101.474C205.379 121.039 199.408 140.562 193.464 160.114C192.366 163.732 191.38 167.407 190.028 170.927C187.507 177.477 179.479 178.936 174.888 173.788C172.902 171.558 172.17 168.893 172.874 165.99C173.691 162.596 174.691 159.258 175.592 155.878C176.085 153.998 176.001 153.942 174.029 154.013C173.156 154.041 172.269 154.013 171.396 154.013V154.041L171.339 154.013Z" fill="#FF2E59" fill-opacity="0.3"/>
<path d="M418.659 154.012C418.011 154.012 417.363 154.012 416.73 154.012C411.702 154.012 409.223 152.161 407.787 147.322C405.491 139.622 403.223 131.922 400.942 124.222C397.59 112.89 394.224 101.571 390.872 90.2389C390.098 87.6162 389.802 84.9794 390.858 82.3707C392.703 77.7704 397.013 75.0494 401.914 75.344C406.322 75.6105 410.561 79.0747 411.716 83.633C413.575 90.9682 415.307 98.3315 417.068 105.681C419.208 114.559 421.335 123.451 423.476 132.329C423.602 132.834 423.771 133.339 423.982 133.816C424.461 134.91 425.208 135.681 426.503 135.625C427.771 135.569 428.546 134.811 428.884 133.647C429.714 130.8 430.574 127.953 431.348 125.092C435.024 111.614 438.714 98.1492 442.305 84.6568C443.516 80.0845 445.868 76.7325 450.727 75.5824C457.459 73.9975 464.247 80.309 462.867 87.0131C461.529 93.4507 459.247 99.6499 457.346 105.947C451.896 124.054 446.375 142.147 440.869 160.239C439.77 163.858 438.798 167.533 437.418 171.039C434.911 177.392 426.926 178.851 422.476 173.9C420.391 171.586 419.574 168.851 420.349 165.794C421.18 162.526 422.123 159.286 423.011 156.032C423.546 154.054 423.433 153.9 421.462 153.984C420.532 154.012 419.588 153.984 418.645 153.984V154.012H418.659Z" fill="#FF2E59" fill-opacity="0.3"/>
<path d="M505.962 105.905C505.962 121.151 505.962 136.382 505.962 151.628C505.962 153.928 505.652 154.251 503.483 153.998C490.062 152.385 480.569 145.499 475.358 133.044C473.711 129.103 472.922 124.896 472.922 120.618C472.88 100.085 472.767 79.5517 472.964 59.0186C473.035 51.7394 476.809 46.3397 483.668 43.6187C490.132 41.0521 496.033 42.6229 500.976 47.3495C504.807 51.0101 505.962 55.7647 505.962 60.884C505.962 75.8911 505.962 90.8982 505.962 105.905Z" fill="#0045FF" fill-opacity="0.3"/>
<path d="M558.24 104.362C558.24 89.0607 558.24 73.759 558.24 58.4714C558.24 51.3324 562.972 45.2454 570.211 43.0294C576.352 41.15 583.647 43.8289 587.59 49.2847C589.773 52.3002 590.703 55.6803 590.717 59.2848C590.759 80.407 590.872 101.515 590.688 122.637C590.562 137.574 579.379 150.45 565.085 153.1C563.423 153.409 561.747 153.704 560.071 153.97C558.832 154.166 558.212 153.69 558.24 152.357C558.297 149.861 558.24 147.35 558.24 144.854C558.24 131.361 558.24 117.869 558.24 104.362Z" fill="#0045FF" fill-opacity="0.3"/>
<path d="M0.0136925 90.8562C0.0136925 78.584 -0.000390954 66.3118 0.0418594 54.0396C0.0559429 49.4954 2.04171 46.0171 6.11183 43.759C12.4776 40.2246 20.3502 44.5865 21.6177 51.7254C21.9135 53.3945 21.9557 55.0775 21.9557 56.7605C21.9557 79.3273 21.9557 101.894 21.9557 124.461C21.9557 126.088 21.9557 127.701 22.2796 129.328C23.35 134.433 25.5893 136.368 30.8706 136.425C36.4335 136.495 41.9965 136.382 47.5595 136.495C52.8548 136.593 56.756 140.843 56.432 145.962C56.1645 150.211 52.545 153.858 47.644 153.914C38.4615 154.026 29.265 154.672 20.1108 153.367C9.60453 151.866 2.3093 144.517 0.774199 134.082C0.224944 130.38 -0.0144744 126.691 -0.000390954 122.96C0.0559429 112.259 0.0136925 101.558 0.0136925 90.8562Z" fill="#FF2E59" fill-opacity="0.3"/>
<path d="M341.016 91.0385C341.016 78.4718 340.988 65.905 341.016 53.3383C341.03 47.2794 346.171 42.3705 352.213 42.5107C357.719 42.637 362.493 47.5458 362.564 53.3103C362.648 59.7619 362.592 66.2276 362.606 72.6793C362.606 75.0496 362.62 75.0215 364.916 75.0636C366.437 75.0916 367.958 75.1758 369.465 75.3161C374.309 75.7789 377.859 79.692 377.704 84.3344C377.549 88.8646 373.535 92.5252 368.69 92.6093C367.169 92.6374 365.648 92.7776 364.127 92.8197C363.141 92.8478 362.592 93.1844 362.606 94.2503C362.775 105.232 362.184 116.228 362.958 127.21C363.043 128.36 363.353 129.496 363.62 130.632C364.521 134.391 366.423 136.018 370.31 136.439C374 136.831 376.929 138.346 378.422 141.908C380.45 146.733 377.915 152.189 372.619 153.423C364.93 155.219 351.17 153.003 345.382 144.124C342.171 139.202 341.087 133.704 341.03 127.995C340.918 115.667 341.002 103.339 341.002 90.9964L341.016 91.0385Z" fill="#FF2E59" fill-opacity="0.3"/>
<path d="M721.369 90.9686C721.369 78.6263 721.355 66.298 721.369 53.9557C721.383 47.3217 726.523 42.3707 733.142 42.525C737.846 42.6372 742.466 46.8168 743.268 51.6976C743.522 53.2544 743.578 54.8252 743.578 56.3961C743.578 78.8507 743.578 101.319 743.578 123.774C743.578 126.411 743.761 128.991 744.55 131.53C745.353 134.111 746.986 135.709 749.719 136.13C750.761 136.299 751.789 136.523 752.817 136.761C756.915 137.729 760.112 141.572 759.985 145.373C759.859 149.454 756.493 153.255 752.127 153.704C743.634 154.588 735.621 153.353 728.96 147.463C725.016 143.984 723.228 139.314 722.143 134.349C721.552 131.67 721.354 128.949 721.354 126.2C721.383 114.447 721.354 102.694 721.354 90.9405L721.369 90.9686Z" fill="#0045FF" fill-opacity="0.3"/>
<path d="M697.976 88.3456C697.976 99.3976 697.976 110.45 697.976 121.502C697.976 124.068 698.103 126.621 698.54 129.145C699.427 134.307 700.793 135.583 705.976 136.439C708.666 136.873 711.102 137.841 712.694 140.141C716.665 145.892 713.384 153.129 706.173 153.83C698.821 154.531 691.681 153.55 685.428 149.033C679.964 145.078 677.598 139.51 676.738 133.115C675.879 126.691 676.105 120.239 676.091 113.788C676.062 94.3064 676.063 74.8112 676.063 55.3299C676.063 51.8096 676.696 48.4435 679.33 45.8628C682.442 42.7913 686.188 41.5851 690.428 43.1279C695.075 44.825 697.934 48.724 697.948 53.2822C697.99 64.9794 697.962 76.6625 697.962 88.3597H697.99L697.976 88.3456Z" fill="#0045FF" fill-opacity="0.3"/>
<path d="M295.302 90.7723C295.302 78.3318 295.273 65.8772 295.302 53.4367C295.316 47.2796 300.442 42.3707 306.597 42.525C311.596 42.6513 316.37 47.1814 316.849 52.3428C317.032 54.3063 317.131 56.2839 317.131 58.2615C317.159 80.4215 317.145 102.582 317.159 124.742C317.159 126.481 317.187 128.22 317.582 129.945C318.553 134.111 320.624 136.004 324.891 136.495C329.891 137.07 333.313 140.45 333.426 144.91C333.552 149.735 330.116 153.536 324.821 153.928C319.398 154.335 314.047 153.69 308.991 151.544C301.555 148.402 297.513 142.624 296.09 134.882C295.583 132.133 295.273 129.37 295.273 126.565C295.302 114.643 295.273 102.722 295.273 90.8003L295.302 90.7723Z" fill="#FF2E59" fill-opacity="0.3"/>
<path d="M515.708 16.3677C515.68 7.8122 523.214 -0.0279757 531.425 7.50425e-05C540.593 0.0421511 548.41 7.50364 548.353 16.3677C548.297 25.4701 540.889 32.5389 532.172 32.6792C523.243 32.8194 515.609 25.3439 515.708 16.3677Z" fill="#7E2EFF" fill-opacity="0.3"/>
<path d="M574.492 32.5111C565.816 32.5111 558.296 25.0636 558.296 16.4661C558.296 7.71427 565.746 0.322909 574.562 0.336934C583.308 0.336934 590.716 7.92465 590.688 16.8308C590.66 25.5405 583.477 32.4971 574.506 32.4971L574.492 32.5111Z" fill="#00CFFF" fill-opacity="0.3"/>
<path d="M489.358 32.5387C480.485 32.4686 473.162 25.0211 473.218 16.101C473.26 7.72783 480.978 0.252318 489.513 0.308419C498.258 0.364521 505.737 7.92419 505.652 16.6059C505.568 25.2455 498.047 32.6088 489.372 32.5527L489.358 32.5387Z" fill="#FF2E59" fill-opacity="0.3"/>
</svg>
