<svg width="16" height="16" viewBox="0 0 16 16" fill="none" xmlns="http://www.w3.org/2000/svg">
<g clip-path="url(#clip0_1939_13972)">
<path d="M8 15.3337C12.05 15.3337 15.3333 12.0503 15.3333 8.00033C15.3333 3.95033 12.05 0.666992 8 0.666992M8 15.3337C3.95 15.3337 0.666666 12.0503 0.666666 8.00033C0.666666 3.95033 3.95 0.666992 8 0.666992M8 15.3337C10 15.3337 10.6667 12.0003 10.6667 8.00033C10.6667 4.00033 10 0.666992 8 0.666992M8 15.3337C6 15.3337 5.33333 12.0003 5.33333 8.00033C5.33333 4.00033 6 0.666992 8 0.666992M1.33333 10.667H14.6667M1.33333 5.33366H14.6667" stroke="#555555"/>
</g>
<defs>
<clipPath id="clip0_1939_13972">
<rect width="16" height="16" fill="white"/>
</clipPath>
</defs>
</svg>
