<svg width="32" height="32" viewBox="0 0 32 32" fill="none" xmlns="http://www.w3.org/2000/svg">
<g id="material-symbols:add-notes-outline-rounded">
<path id="Vector" d="M6.66667 28C5.93334 28 5.30534 27.7387 4.78267 27.216C4.26 26.6933 3.99911 26.0658 4 25.3333V6.66667C4 5.93334 4.26134 5.30534 4.784 4.78267C5.30667 4.26 5.93422 3.99911 6.66667 4H25.3333C26.0667 4 26.6947 4.26134 27.2173 4.784C27.74 5.30667 28.0009 5.93422 28 6.66667V15.6C27.5778 15.4 27.1444 15.2276 26.7 15.0827C26.2556 14.9378 25.8 14.8324 25.3333 14.7667V6.66667H6.66667V25.3333H14.7333C14.8 25.8222 14.9058 26.2889 15.0507 26.7333C15.1956 27.1778 15.3676 27.6 15.5667 28H6.66667ZM6.66667 24V25.3333V6.66667V14.7667V14.6667V24ZM9.33334 21.3333C9.33334 21.7111 9.46134 22.028 9.71734 22.284C9.97334 22.54 10.2898 22.6676 10.6667 22.6667H14.7667C14.8333 22.2 14.9391 21.7444 15.084 21.3C15.2289 20.8556 15.3898 20.4222 15.5667 20H10.6667C10.2889 20 9.972 20.128 9.716 20.384C9.46 20.64 9.33245 20.9564 9.33334 21.3333ZM9.33334 16C9.33334 16.3778 9.46134 16.6947 9.71734 16.9507C9.97334 17.2067 10.2898 17.3342 10.6667 17.3333H17.4667C18.1778 16.6667 18.9724 16.1111 19.8507 15.6667C20.7289 15.2222 21.6676 14.9222 22.6667 14.7667C22.4667 14.7222 22.2444 14.6942 22 14.6827C21.7556 14.6711 21.5333 14.6658 21.3333 14.6667H10.6667C10.2889 14.6667 9.972 14.7947 9.716 15.0507C9.46 15.3067 9.33245 15.6231 9.33334 16ZM9.33334 10.6667C9.33334 11.0444 9.46134 11.3613 9.71734 11.6173C9.97334 11.8733 10.2898 12.0009 10.6667 12H21.3333C21.7111 12 22.028 11.872 22.284 11.616C22.54 11.36 22.6676 11.0436 22.6667 10.6667C22.6667 10.2889 22.5387 9.972 22.2827 9.716C22.0267 9.46 21.7102 9.33245 21.3333 9.33334H10.6667C10.2889 9.33334 9.972 9.46134 9.716 9.71734C9.46 9.97334 9.33245 10.2898 9.33334 10.6667ZM24 30.6667C22.1556 30.6667 20.5831 30.0164 19.2827 28.716C17.9822 27.4156 17.3324 25.8436 17.3333 24C17.3333 22.1556 17.9836 20.5831 19.284 19.2827C20.5844 17.9822 22.1564 17.3324 24 17.3333C25.8444 17.3333 27.4169 17.9836 28.7173 19.284C30.0178 20.5844 30.6676 22.1564 30.6667 24C30.6667 25.8444 30.0164 27.4169 28.716 28.7173C27.4156 30.0178 25.8436 30.6676 24 30.6667ZM23.3333 24.6667V27.3333C23.3333 27.5111 23.4 27.6667 23.5333 27.8C23.6667 27.9333 23.8222 28 24 28C24.1778 28 24.3333 27.9333 24.4667 27.8C24.6 27.6667 24.6667 27.5111 24.6667 27.3333V24.6667H27.3333C27.5111 24.6667 27.6667 24.6 27.8 24.4667C27.9333 24.3333 28 24.1778 28 24C28 23.8222 27.9333 23.6667 27.8 23.5333C27.6667 23.4 27.5111 23.3333 27.3333 23.3333H24.6667V20.6667C24.6667 20.4889 24.6 20.3333 24.4667 20.2C24.3333 20.0667 24.1778 20 24 20C23.8222 20 23.6667 20.0667 23.5333 20.2C23.4 20.3333 23.3333 20.4889 23.3333 20.6667V23.3333H20.6667C20.4889 23.3333 20.3333 23.4 20.2 23.5333C20.0667 23.6667 20 23.8222 20 24C20 24.1778 20.0667 24.3333 20.2 24.4667C20.3333 24.6 20.4889 24.6667 20.6667 24.6667H23.3333Z" fill="#0045FF"/>
</g>
</svg>
