<svg width="24" height="24" viewBox="0 0 24 24" fill="none" xmlns="http://www.w3.org/2000/svg">
<g id="material-symbols:edit-square-outline-rounded">
<path id="Vector" d="M5 23.7008C4.45 23.7008 3.979 23.5051 3.587 23.1138C3.195 22.7225 2.99934 22.2514 3 21.7008V7.70078C3 7.15078 3.196 6.67978 3.588 6.28778C3.98 5.89578 4.45067 5.70011 5 5.70078H13.925L11.925 7.70078H5V21.7008H19V14.7508L21 12.7508V21.7008C21 22.2508 20.804 22.7218 20.412 23.1138C20.02 23.5058 19.5493 23.7015 19 23.7008H5ZM16.175 6.27578L17.6 7.67578L11 14.2758V15.7008H12.4L19.025 9.07578L20.45 10.4758L13.825 17.1008C13.6417 17.2841 13.429 17.4301 13.187 17.5388C12.945 17.6474 12.691 17.7014 12.425 17.7008H10C9.71667 17.7008 9.479 17.6048 9.287 17.4128C9.095 17.2208 8.99934 16.9834 9 16.7008V14.2758C9 14.0091 9.05 13.7548 9.15 13.5128C9.25 13.2708 9.39167 13.0584 9.575 12.8758L16.175 6.27578ZM20.45 10.4758L16.175 6.27578L18.675 3.77578C19.075 3.37578 19.5543 3.17578 20.113 3.17578C20.6717 3.17578 21.1423 3.37578 21.525 3.77578L22.925 5.20078C23.3083 5.58411 23.5 6.05078 23.5 6.60078C23.5 7.15078 23.3083 7.61745 22.925 8.00078L20.45 10.4758Z" fill="#1F2126"/>
</g>
</svg>
