<svg width="40" height="40" viewBox="0 0 40 40" fill="none" xmlns="http://www.w3.org/2000/svg">
<g id="mdi:password-alert-outline">
<path id="Vector" d="M16.6667 28.3332C14.8334 28.3332 13.3334 26.8332 13.3334 24.9998C13.3334 23.1665 14.8334 21.6665 16.6667 21.6665C18.5 21.6665 20 23.1665 20 24.9998C20 26.8332 18.5 28.3332 16.6667 28.3332ZM26.6667 33.3332V16.6665H6.66671V33.3332H26.6667ZM26.6667 13.3332C28.5 13.3332 30 14.8332 30 16.6665V33.3332C30 35.1665 28.5 36.6665 26.6667 36.6665H6.66671C4.83337 36.6665 3.33337 35.1665 3.33337 33.3332V16.6665C3.33337 14.8332 4.83337 13.3332 6.66671 13.3332H8.33337V9.99984C8.33337 5.33317 12 1.6665 16.6667 1.6665C21.3334 1.6665 25 5.33317 25 9.99984V13.3332H26.6667ZM16.6667 4.99984C13.8334 4.99984 11.6667 7.1665 11.6667 9.99984V13.3332H21.6667V9.99984C21.6667 7.1665 19.5 4.99984 16.6667 4.99984ZM36.6667 11.6665H33.3334V21.6665H36.6667V11.6665ZM36.6667 24.9998H33.3334V28.3332H36.6667V24.9998Z" fill="#4073FF"/>
</g>
</svg>
